<svg width="107" height="31" viewBox="0 0 107 31" fill="none" xmlns="http://www.w3.org/2000/svg">
    <path d="M36.277 21.7182C36.6875 22.2167 37.1323 22.5687 37.6113 22.7739C38.1001 22.9792 38.6134 23.0819 39.151 23.0819C39.7082 23.0819 40.2068 22.9841 40.6467 22.7886C41.0964 22.5833 41.4776 22.2705 41.7904 21.8502C42.1033 21.42 42.3428 20.8775 42.5089 20.2225C42.6751 19.5578 42.7582 18.7659 42.7582 17.847C42.7582 16.1949 42.4845 15.0023 41.9371 14.2691C41.3896 13.5262 40.6027 13.1547 39.5763 13.1547C38.8822 13.1547 38.2761 13.316 37.758 13.6386C37.2399 13.9514 36.7462 14.3962 36.277 14.973V21.7182ZM36.277 12.4215C36.8831 11.7861 37.5527 11.2827 38.2859 10.9112C39.0288 10.5299 39.8744 10.3393 40.8226 10.3393C41.6927 10.3393 42.4747 10.5104 43.1688 10.8525C43.8727 11.1947 44.469 11.6884 44.9577 12.3336C45.4563 12.969 45.8376 13.7412 46.1015 14.6504C46.3654 15.5595 46.4974 16.5811 46.4974 17.715C46.4974 18.937 46.3459 20.0465 46.0428 21.0437C45.7398 22.0408 45.3048 22.8961 44.7378 23.6098C44.1806 24.3136 43.5061 24.8611 42.7142 25.2521C41.9224 25.6431 41.0426 25.8386 40.0748 25.8386C39.6056 25.8386 39.1803 25.7897 38.7991 25.692C38.4178 25.604 38.0659 25.4769 37.7433 25.3107C37.4207 25.1445 37.1226 24.9441 36.8488 24.7095C36.5849 24.4651 36.3307 24.1963 36.0863 23.903L35.925 24.9148C35.8664 25.169 35.7637 25.3498 35.6171 25.4574C35.4803 25.5649 35.2896 25.6187 35.0452 25.6187H32.6551V3.82874H36.277V12.4215Z" fill="#0278D1"/>
    <path d="M58.9873 16.366C58.9873 15.8968 58.9188 15.4569 58.782 15.0463C58.6549 14.6259 58.4594 14.2594 58.1954 13.9465C57.9315 13.6337 57.5942 13.3893 57.1836 13.2134C56.7828 13.0276 56.3136 12.9348 55.776 12.9348C54.73 12.9348 53.9039 13.2329 53.2978 13.8292C52.7015 14.4255 52.3203 15.2711 52.1541 16.366H58.9873ZM52.0808 18.5509C52.1394 19.3231 52.2763 19.9928 52.4913 20.5598C52.7064 21.117 52.9899 21.5813 53.3418 21.9528C53.6937 22.3145 54.1092 22.5882 54.5882 22.7739C55.077 22.9499 55.6147 23.0379 56.2012 23.0379C56.7877 23.0379 57.2912 22.9695 57.7115 22.8326C58.1417 22.6957 58.5131 22.5442 58.826 22.378C59.1486 22.2119 59.4272 22.0603 59.6618 21.9235C59.9062 21.7866 60.1408 21.7182 60.3656 21.7182C60.6687 21.7182 60.8935 21.8306 61.0401 22.0554L62.0813 23.3752C61.6805 23.8444 61.2308 24.2403 60.7322 24.5629C60.2337 24.8757 59.7107 25.1299 59.1632 25.3254C58.6256 25.5111 58.0732 25.6431 57.5062 25.7213C56.949 25.7995 56.4065 25.8386 55.8786 25.8386C54.8326 25.8386 53.8599 25.6675 52.9606 25.3254C52.0612 24.9735 51.2792 24.4603 50.6144 23.7857C49.9497 23.1014 49.4267 22.2607 49.0454 21.2636C48.6642 20.2567 48.4735 19.0934 48.4735 17.7737C48.4735 16.7473 48.6397 15.7844 48.9721 14.885C49.3045 13.9759 49.7786 13.1889 50.3945 12.5242C51.0201 11.8497 51.7777 11.3169 52.6673 10.9259C53.5667 10.5348 54.5784 10.3393 55.7026 10.3393C56.6509 10.3393 57.5258 10.4908 58.3274 10.7939C59.129 11.0969 59.8182 11.5417 60.395 12.1283C60.9717 12.705 61.4214 13.4187 61.744 14.2691C62.0764 15.1098 62.2425 16.0727 62.2425 17.1578C62.2425 17.7053 62.1839 18.0767 62.0666 18.2723C61.9493 18.458 61.7244 18.5509 61.3921 18.5509H52.0808Z" fill="#0278D1"/>
    <path d="M72.9082 19.1961C71.8622 19.2449 70.9824 19.3378 70.2687 19.4747C69.5551 19.6018 68.9832 19.7679 68.5531 19.9732C68.123 20.1785 67.8151 20.418 67.6293 20.6917C67.4436 20.9655 67.3507 21.2636 67.3507 21.5862C67.3507 22.2216 67.5364 22.6762 67.9079 22.9499C68.2892 23.2236 68.7828 23.3605 69.3889 23.3605C70.1319 23.3605 70.7722 23.2285 71.3099 22.9646C71.8573 22.6909 72.3901 22.2803 72.9082 21.7328V19.1961ZM64.6086 12.6708C66.3389 11.0872 68.4211 10.2953 70.8553 10.2953C71.7351 10.2953 72.522 10.442 73.2161 10.7352C73.9102 11.0187 74.4967 11.4195 74.9757 11.9376C75.4547 12.446 75.8164 13.057 76.0608 13.7706C76.315 14.4842 76.4421 15.2662 76.4421 16.1167V25.6187H74.7998C74.4576 25.6187 74.1937 25.5698 74.0079 25.472C73.8222 25.3645 73.6756 25.1543 73.568 24.8415L73.2454 23.7564C72.8642 24.0986 72.4927 24.4016 72.131 24.6655C71.7693 24.9197 71.3929 25.1348 71.0019 25.3107C70.6109 25.4867 70.1905 25.6187 69.7409 25.7066C69.301 25.8044 68.8122 25.8533 68.2745 25.8533C67.6391 25.8533 67.0526 25.7702 66.5149 25.604C65.9772 25.428 65.5129 25.169 65.1219 24.8268C64.7308 24.4847 64.4278 24.0594 64.2127 23.5511C63.9977 23.0428 63.8901 22.4514 63.8901 21.7768C63.8901 21.3956 63.9537 21.0192 64.0808 20.6477C64.2078 20.2665 64.4131 19.9048 64.6966 19.5626C64.9899 19.2205 65.3663 18.8979 65.8257 18.5949C66.2852 18.2918 66.8473 18.0279 67.512 17.803C68.1865 17.5782 68.9686 17.3973 69.8582 17.2605C70.7478 17.1138 71.7644 17.0259 72.9082 16.9965V16.1167C72.9082 15.1098 72.6931 14.3669 72.263 13.8879C71.8329 13.3991 71.2121 13.1547 70.4007 13.1547C69.8142 13.1547 69.3254 13.2231 68.9344 13.36C68.5531 13.4969 68.2159 13.6533 67.9226 13.8292C67.6293 13.9954 67.3605 14.1469 67.1161 14.2838C66.8815 14.4207 66.6175 14.4891 66.3243 14.4891C66.0701 14.4891 65.855 14.4255 65.6791 14.2985C65.5031 14.1616 65.3614 14.0052 65.2538 13.8292L64.6086 12.6708Z" fill="#0278D1"/>
    <path d="M83.2404 12.4215C83.5435 12.1185 83.8612 11.8399 84.1935 11.5857C84.5357 11.3218 84.8925 11.1018 85.264 10.9259C85.6452 10.7401 86.0509 10.5984 86.481 10.5006C86.9112 10.3931 87.3804 10.3393 87.8887 10.3393C88.7099 10.3393 89.4382 10.4811 90.0736 10.7646C90.709 11.0383 91.2369 11.4293 91.6573 11.9376C92.0874 12.4362 92.41 13.0374 92.625 13.7412C92.8499 14.4353 92.9623 15.2027 92.9623 16.0434V25.6187H89.3404V16.0434C89.3404 15.1245 89.1303 14.4158 88.7099 13.9172C88.2895 13.4089 87.6492 13.1547 86.789 13.1547C86.1633 13.1547 85.5768 13.2965 85.0294 13.5799C84.4819 13.8634 83.9638 14.2496 83.475 14.7384V25.6187H79.8532V10.5739H82.0673C82.5366 10.5739 82.8445 10.7939 82.9911 11.2338L83.2404 12.4215Z" fill="#0278D1"/>
    <path d="M105.586 13.5066C105.488 13.663 105.386 13.7755 105.278 13.8439C105.171 13.9025 105.034 13.9319 104.868 13.9319C104.692 13.9319 104.501 13.883 104.296 13.7852C104.1 13.6875 103.871 13.5799 103.607 13.4626C103.343 13.3356 103.04 13.2231 102.697 13.1254C102.365 13.0276 101.969 12.9787 101.51 12.9787C100.796 12.9787 100.234 13.1303 99.8234 13.4333C99.4226 13.7364 99.2222 14.1323 99.2222 14.6211C99.2222 14.9437 99.3249 15.2174 99.5302 15.4422C99.7452 15.6573 100.024 15.8479 100.366 16.0141C100.718 16.1803 101.114 16.3318 101.554 16.4687C101.994 16.5957 102.438 16.7375 102.888 16.8939C103.348 17.0503 103.797 17.2312 104.237 17.4364C104.677 17.632 105.068 17.8861 105.41 18.1989C105.762 18.502 106.041 18.8686 106.246 19.2987C106.461 19.7288 106.569 20.2469 106.569 20.853C106.569 21.5764 106.437 22.2461 106.173 22.8619C105.919 23.468 105.537 23.9959 105.029 24.4456C104.521 24.8855 103.89 25.2325 103.137 25.4867C102.394 25.7311 101.534 25.8533 100.557 25.8533C100.039 25.8533 99.5302 25.8044 99.0316 25.7066C98.5428 25.6187 98.0687 25.4916 97.6093 25.3254C97.1596 25.1592 96.7392 24.9637 96.3482 24.7389C95.9669 24.514 95.6297 24.2696 95.3364 24.0057L96.1722 22.6273C96.2798 22.4611 96.4068 22.334 96.5535 22.2461C96.7001 22.1581 96.8859 22.1141 97.1107 22.1141C97.3355 22.1141 97.5457 22.1776 97.7412 22.3047C97.9465 22.4318 98.1811 22.5687 98.4451 22.7153C98.709 22.8619 99.0169 22.9988 99.3689 23.1259C99.7306 23.253 100.185 23.3165 100.733 23.3165C101.163 23.3165 101.529 23.2676 101.832 23.1699C102.145 23.0623 102.399 22.9255 102.595 22.7593C102.8 22.5931 102.947 22.4025 103.035 22.1874C103.132 21.9626 103.181 21.7328 103.181 21.4982C103.181 21.1463 103.074 20.8579 102.859 20.6331C102.653 20.4082 102.375 20.2127 102.023 20.0465C101.681 19.8804 101.285 19.7337 100.835 19.6066C100.395 19.4698 99.9408 19.3231 99.4715 19.1667C99.0121 19.0103 98.5575 18.8295 98.1078 18.6242C97.6679 18.4091 97.272 18.1403 96.9201 17.8177C96.5779 17.4951 96.2993 17.0992 96.0843 16.63C95.879 16.1607 95.7763 15.5937 95.7763 14.929C95.7763 14.3131 95.8985 13.7266 96.1429 13.1694C96.3873 12.6122 96.7441 12.1283 97.2133 11.7177C97.6923 11.2973 98.2838 10.965 98.9876 10.7206C99.7012 10.4664 100.522 10.3393 101.451 10.3393C102.487 10.3393 103.431 10.5104 104.281 10.8525C105.132 11.1947 105.84 11.6444 106.407 12.2016L105.586 13.5066Z" fill="#0278D1"/>
    <path d="M15.5922 27.3131C22.2372 27.3131 27.624 21.9263 27.624 15.2814C27.624 12.7319 26.831 10.3677 25.4783 8.42185C25.1033 9.37964 24.567 10.3835 23.6687 11.4014C22.142 13.1315 19.648 14.8227 15.3459 16.5753C11.2141 18.2583 9.46032 19.7911 8.58529 21.0777C8.14559 21.7241 7.89607 22.3538 7.69094 23.007C7.63257 23.1927 7.5731 23.3996 7.51048 23.6172C7.46787 23.7652 7.42389 23.9182 7.37785 24.0728C9.52815 26.0828 12.4166 27.3131 15.5922 27.3131Z" fill="#0278D1"/>
    <path d="M5.74206 22.1921C5.97528 21.4818 6.29413 20.7039 6.84496 19.894C8.04693 18.1268 10.2268 16.3878 14.552 14.6261C18.7066 12.9336 20.8665 11.3959 22.0906 10.0089C23.1008 8.86402 23.5264 7.76838 23.8854 6.56436C21.7272 4.51038 18.8069 3.24963 15.5922 3.24963C8.94731 3.24963 3.56052 8.63643 3.56052 15.2814C3.56052 17.8533 4.36758 20.2365 5.74206 22.1921Z" fill="#0278D1"/>
</svg>

