<svg width="166" height="40" viewBox="0 0 166 40" fill="none" xmlns="http://www.w3.org/2000/svg">
    <path d="M42.1497 16.4627C44.4791 16.4627 46.0427 17.4998 47 18.7884V0.433936C47 0.0882183 46.5852 -0.131783 46.298 0.0882188L23.2911 16.6512H23.8973C26.2906 16.6512 27.5031 18.1598 27.5031 19.7941C27.5031 21.0827 26.833 22.0256 25.9077 22.4342C25.7481 22.497 25.7481 22.717 25.9077 22.7799C26.9607 23.2199 27.7265 24.3199 27.7265 25.6399C27.7265 27.5256 26.482 29.0028 24.0888 29.0028H17.5473C17.4197 29.0028 17.292 28.9085 17.292 28.7514V20.957L0.1565 33.3086C-0.130688 33.56 -0.00304981 34 0.379867 34H46.5852C46.8085 34 46.9681 33.8429 46.9681 33.6229V27.3685C45.7236 28.4999 44.0962 29.2228 42.1178 29.2228C38.4163 29.2228 35.4168 26.7085 35.4168 22.8427C35.4487 18.9456 38.4801 16.4627 42.1497 16.4627ZM32.9916 28.7828C32.9916 28.9085 32.8959 29.0028 32.7683 29.0028H30.5665C30.4388 29.0028 30.3431 28.9085 30.3431 28.7828V16.8713C30.3431 16.7455 30.4388 16.6512 30.5665 16.6512H32.7683C32.8959 16.6512 32.9916 16.7455 32.9916 16.8713V28.7828Z" fill="#34313F"/>
    <path d="M20.0798 21.5446H23.1674C24.0586 21.5446 24.6316 21.0354 24.6316 20.2396C24.6316 19.4757 24.0586 18.9346 23.1674 18.9346H19.9525C19.8889 18.9346 19.8252 18.9982 19.8252 19.0619V21.3218C19.8252 21.4492 19.9525 21.5446 20.0798 21.5446Z" fill="#34313F"/>
    <path d="M20.0798 26.7649H23.2947C24.2814 26.7649 24.8862 26.2238 24.8862 25.3325C24.8862 24.5368 24.3133 23.9001 23.2947 23.9001H20.0798C19.9525 23.9001 19.8252 23.9956 19.8252 24.1548V26.5102C19.8252 26.6375 19.9525 26.7649 20.0798 26.7649Z" fill="#34313F"/>
    <path d="M44.7798 20.176C44.1751 19.3803 43.1565 18.7437 41.947 18.7437C39.6552 18.7437 38 20.4943 38 22.8498C38 25.2052 39.6552 26.9559 41.947 26.9559C42.9974 26.9559 43.9841 26.5102 44.5252 26.0646C44.557 26.0328 44.5889 25.9691 44.5889 25.9055V24.6959C44.5889 24.6004 44.4934 24.5049 44.3979 24.5049H41.565C41.4058 24.5049 41.3103 24.3776 41.3103 24.2503V22.4678C41.3103 22.3086 41.4377 22.2132 41.565 22.2132H46.817V19.3803L45.13 20.3033C45.0027 20.3352 44.8435 20.2715 44.7798 20.176Z" fill="#34313F"/>
    <path d="M48.7578 22.8496C48.7578 18.9981 51.527 16.3881 55.092 16.3881C57.4156 16.3881 58.9117 17.5658 59.8029 18.9981C59.8666 19.0936 59.8347 19.2528 59.7074 19.2846L58.2751 20.0485C58.1796 20.1122 58.0522 20.0804 58.0204 19.9849C57.4156 19.03 56.3016 18.3297 55.092 18.3297C52.7048 18.3297 50.9223 20.2077 50.9223 22.8496C50.9223 25.4597 52.7048 27.3695 55.092 27.3695C56.3016 27.3695 57.4156 26.6692 58.0204 25.7143C58.0841 25.6188 58.1796 25.587 58.2751 25.6507L59.7074 26.3828C59.8347 26.4464 59.8666 26.5737 59.8029 26.7011C58.8798 28.1334 57.3838 29.343 55.092 29.343C51.527 29.3111 48.7578 26.6692 48.7578 22.8496Z" fill="#34313F"/>
    <path d="M61.0449 22.8498C61.0449 19.7304 62.8274 17.3113 65.5012 16.611C70.0529 15.4015 74.2226 19.6667 73.2359 24.4095C72.6311 27.3378 70.3075 29.3431 67.22 29.3431C63.5913 29.3113 61.0449 26.5739 61.0449 22.8498ZM71.1988 22.8498C71.1988 20.2715 69.6073 18.3299 67.1882 18.3299C64.7372 18.3299 63.1775 20.2715 63.1775 22.8498C63.1775 25.428 64.7372 27.3697 67.1882 27.3697C69.6391 27.3697 71.1988 25.3962 71.1988 22.8498Z" fill="#34313F"/>
    <path d="M86.3486 28.9292V19.412L82.5609 28.9929C82.5609 29.0247 82.4972 29.0565 82.4654 29.0565H81.6696C81.6378 29.0565 81.5741 29.0247 81.5741 28.9929L77.7545 19.412V28.9292C77.7545 29.0247 77.6908 29.0884 77.5953 29.0884H75.6855C75.59 29.0884 75.5264 29.0247 75.5264 28.9292V16.7064C75.5264 16.6109 75.59 16.5472 75.6855 16.5472H78.4229C78.5502 16.5472 78.6457 16.6109 78.7094 16.7382L82.0516 25.3324L85.3619 16.7382C85.3937 16.6109 85.5211 16.5472 85.6484 16.5472H88.3858C88.4813 16.5472 88.5449 16.6109 88.5449 16.7064V28.9292C88.5449 29.0247 88.4813 29.0884 88.3858 29.0884H86.476C86.4441 29.0884 86.3486 29.0247 86.3486 28.9292Z" fill="#34313F"/>
    <path d="M107.994 28.8656V16.8019C107.994 16.6746 108.09 16.5791 108.217 16.5791H116.334C116.461 16.5791 116.556 16.6746 116.556 16.8019V18.2661C116.556 18.3934 116.461 18.4889 116.334 18.4889H110.413C110.286 18.4889 110.19 18.5844 110.19 18.7117V21.481C110.19 21.6083 110.286 21.7038 110.413 21.7038H116.206C116.334 21.7038 116.429 21.7993 116.429 21.9266V23.3908C116.429 23.5181 116.334 23.6136 116.206 23.6136H110.413C110.286 23.6136 110.19 23.7091 110.19 23.8364V26.8603C110.19 26.9876 110.286 27.0831 110.413 27.0831H116.334C116.461 27.0831 116.556 27.1786 116.556 27.3059V28.7701C116.556 28.8974 116.461 28.9929 116.334 28.9929H108.217C108.09 29.0884 107.994 28.9929 107.994 28.8656Z" fill="#34313F"/>
    <path d="M126.742 28.9611L124.1 24.5048C124.068 24.4412 123.973 24.4093 123.909 24.4093H122.063C121.936 24.4093 121.84 24.5048 121.84 24.6321V28.8656C121.84 28.9929 121.745 29.0884 121.617 29.0884H119.899C119.771 29.0884 119.676 28.9929 119.676 28.8656V16.8019C119.676 16.6746 119.771 16.5791 119.899 16.5791H125.182C127.665 16.5791 129.289 18.1706 129.289 20.4942C129.289 22.5632 128.015 23.7409 126.615 24.091C126.456 24.1229 126.392 24.282 126.456 24.4412C126.965 25.2688 128.556 27.8152 129.161 28.7383C129.257 28.8974 129.161 29.0884 128.97 29.0884H126.965C126.869 29.0884 126.806 29.0566 126.742 28.9611ZM127.029 20.4624C127.029 19.2528 126.137 18.4889 124.896 18.4889H122.095C121.968 18.4889 121.872 18.5844 121.872 18.7117V22.2449C121.872 22.3722 121.968 22.4677 122.095 22.4677H124.896C126.137 22.4677 127.029 21.7038 127.029 20.4624Z" fill="#34313F"/>
    <path d="M144.122 28.8656V16.8019C144.122 16.6746 144.218 16.5791 144.345 16.5791H152.493C152.621 16.5791 152.716 16.6746 152.716 16.8019V18.2979C152.716 18.4253 152.621 18.5207 152.493 18.5207H146.541C146.414 18.5207 146.318 18.6162 146.318 18.7436V21.5446C146.318 21.6719 146.414 21.7674 146.541 21.7674H152.334C152.462 21.7674 152.557 21.8629 152.557 21.9902V23.4863C152.557 23.6136 152.462 23.7091 152.334 23.7091H146.541C146.414 23.7091 146.318 23.8046 146.318 23.9319V26.9876C146.318 27.1149 146.414 27.2104 146.541 27.2104H152.493C152.621 27.2104 152.716 27.3059 152.716 27.4332V28.9292C152.716 29.0566 152.621 29.152 152.493 29.152H144.345C144.218 29.0884 144.122 28.9929 144.122 28.8656Z" fill="#34313F"/>
    <path d="M130.88 22.7859C130.88 18.9344 133.649 16.3243 137.214 16.3243C139.538 16.3243 141.034 17.5021 141.925 18.9344C141.989 19.0299 141.957 19.1891 141.829 19.2209L140.397 19.9848C140.302 20.0485 140.174 20.0166 140.142 19.9212C139.538 18.9663 138.424 18.266 137.214 18.266C134.827 18.266 133.044 20.144 133.044 22.7859C133.044 25.396 134.827 27.3058 137.214 27.3058C138.424 27.3058 139.538 26.6055 140.142 25.6506C140.206 25.5551 140.302 25.5233 140.397 25.5869L141.829 26.319C141.957 26.3827 141.989 26.51 141.925 26.6373C141.002 28.0697 139.506 29.2792 137.214 29.2792C133.649 29.2474 130.88 26.6373 130.88 22.7859Z" fill="#34313F"/>
    <path d="M102.583 28.9292V19.412L98.7952 28.9929C98.7952 29.0247 98.7316 29.0565 98.6997 29.0565H97.904C97.8721 29.0565 97.8085 29.0247 97.8085 28.9929L93.9889 19.412V28.9292C93.9889 29.0247 93.9252 29.0884 93.8297 29.0884H91.9199C91.8244 29.0884 91.7607 29.0247 91.7607 28.9292V16.7064C91.7607 16.6109 91.8244 16.5472 91.9199 16.5472H94.6573C94.7846 16.5472 94.8801 16.6109 94.9438 16.7382L98.2859 25.3324L101.596 16.7382C101.628 16.6109 101.755 16.5472 101.883 16.5472H104.62C104.716 16.5472 104.779 16.6109 104.779 16.7064V28.9292C104.779 29.0247 104.716 29.0884 104.62 29.0884H102.71C102.647 29.0884 102.583 29.0247 102.583 28.9292Z" fill="#34313F"/>
    <g filter="url(#filter0_d)">
        <rect x="119.283" y="2.38049" width="45.3466" height="17.7245" rx="2" fill="#0278D1"/>
    </g>
    <path d="M137.946 9.24742C137.913 9.31388 137.874 9.36071 137.828 9.3879C137.786 9.41509 137.735 9.42868 137.674 9.42868C137.614 9.42868 137.546 9.40602 137.47 9.36071C137.395 9.31237 137.306 9.2595 137.203 9.2021C137.1 9.1447 136.979 9.09335 136.84 9.04803C136.704 8.99969 136.543 8.97552 136.355 8.97552C136.186 8.97552 136.038 8.99667 135.911 9.03897C135.787 9.07824 135.682 9.13413 135.594 9.20663C135.51 9.27914 135.446 9.36675 135.404 9.46947C135.362 9.56916 135.34 9.67943 135.34 9.80027C135.34 9.95435 135.383 10.0827 135.467 10.1855C135.555 10.2882 135.67 10.3758 135.812 10.4483C135.954 10.5208 136.115 10.5857 136.297 10.6431C136.478 10.7005 136.662 10.7625 136.849 10.8289C137.04 10.8924 137.226 10.9679 137.407 11.0555C137.588 11.1401 137.75 11.2489 137.892 11.3818C138.034 11.5117 138.147 11.6718 138.232 11.8621C138.319 12.0525 138.363 12.2836 138.363 12.5555C138.363 12.8515 138.312 13.1295 138.209 13.3893C138.109 13.6461 137.961 13.8711 137.765 14.0645C137.571 14.2548 137.334 14.4059 137.053 14.5176C136.772 14.6264 136.451 14.6808 136.088 14.6808C135.88 14.6808 135.674 14.6596 135.472 14.6173C135.269 14.5781 135.075 14.5207 134.887 14.4451C134.703 14.3696 134.529 14.279 134.366 14.1732C134.206 14.0675 134.062 13.9497 133.936 13.8198L134.289 13.2352C134.322 13.1929 134.362 13.1582 134.407 13.131C134.455 13.1008 134.508 13.0857 134.565 13.0857C134.641 13.0857 134.723 13.1174 134.81 13.1808C134.898 13.2413 135.001 13.3092 135.118 13.3848C135.239 13.4603 135.38 13.5298 135.54 13.5932C135.703 13.6536 135.898 13.6838 136.124 13.6838C136.472 13.6838 136.741 13.6023 136.931 13.4391C137.121 13.273 137.216 13.0358 137.216 12.7277C137.216 12.5555 137.173 12.415 137.085 12.3062C137 12.1975 136.887 12.1068 136.745 12.0343C136.603 11.9588 136.442 11.8954 136.26 11.844C136.079 11.7927 135.895 11.7368 135.707 11.6763C135.52 11.6159 135.336 11.5434 135.155 11.4588C134.973 11.3742 134.812 11.264 134.67 11.128C134.528 10.9921 134.413 10.8229 134.325 10.6205C134.241 10.4151 134.198 10.1628 134.198 9.86371C134.198 9.62505 134.245 9.39243 134.339 9.16585C134.436 8.93927 134.575 8.73837 134.756 8.56315C134.94 8.38793 135.165 8.24745 135.431 8.14171C135.697 8.03598 136 7.98311 136.342 7.98311C136.729 7.98311 137.085 8.04353 137.411 8.16437C137.738 8.28521 138.016 8.45439 138.245 8.67191L137.946 9.24742ZM145.578 11.3319C145.578 11.8123 145.498 12.2579 145.338 12.6688C145.178 13.0766 144.953 13.4301 144.663 13.7292C144.373 14.0282 144.024 14.2624 143.616 14.4315C143.208 14.5977 142.757 14.6808 142.261 14.6808C141.766 14.6808 141.313 14.5977 140.902 14.4315C140.494 14.2624 140.144 14.0282 139.851 13.7292C139.56 13.4301 139.335 13.0766 139.175 12.6688C139.015 12.2579 138.935 11.8123 138.935 11.3319C138.935 10.8516 139.015 10.4075 139.175 9.99966C139.335 9.5888 139.56 9.23382 139.851 8.93474C140.144 8.63566 140.494 8.40303 140.902 8.23688C141.313 8.0677 141.766 7.98311 142.261 7.98311C142.757 7.98311 143.208 8.0677 143.616 8.23688C144.024 8.40606 144.373 8.64019 144.663 8.93927C144.953 9.23533 145.178 9.5888 145.338 9.99966C145.498 10.4075 145.578 10.8516 145.578 11.3319ZM144.328 11.3319C144.328 10.9724 144.279 10.6507 144.183 10.3667C144.089 10.0797 143.953 9.83652 143.775 9.63713C143.597 9.43774 143.379 9.28518 143.122 9.17944C142.869 9.07371 142.582 9.02084 142.261 9.02084C141.941 9.02084 141.653 9.07371 141.396 9.17944C141.139 9.28518 140.92 9.43774 140.739 9.63713C140.56 9.83652 140.423 10.0797 140.326 10.3667C140.23 10.6507 140.181 10.9724 140.181 11.3319C140.181 11.6915 140.23 12.0147 140.326 12.3017C140.423 12.5857 140.56 12.8274 140.739 13.0268C140.92 13.2231 141.139 13.3742 141.396 13.4799C141.653 13.5857 141.941 13.6385 142.261 13.6385C142.582 13.6385 142.869 13.5857 143.122 13.4799C143.379 13.3742 143.597 13.2231 143.775 13.0268C143.953 12.8274 144.089 12.5857 144.183 12.3017C144.279 12.0147 144.328 11.6915 144.328 11.3319ZM152.827 11.3319C152.827 11.8123 152.747 12.2579 152.587 12.6688C152.427 13.0766 152.202 13.4301 151.912 13.7292C151.622 14.0282 151.273 14.2624 150.865 14.4315C150.457 14.5977 150.006 14.6808 149.51 14.6808C149.015 14.6808 148.561 14.5977 148.151 14.4315C147.743 14.2624 147.392 14.0282 147.099 13.7292C146.809 13.4301 146.584 13.0766 146.424 12.6688C146.264 12.2579 146.184 11.8123 146.184 11.3319C146.184 10.8516 146.264 10.4075 146.424 9.99966C146.584 9.5888 146.809 9.23382 147.099 8.93474C147.392 8.63566 147.743 8.40303 148.151 8.23688C148.561 8.0677 149.015 7.98311 149.51 7.98311C150.006 7.98311 150.457 8.0677 150.865 8.23688C151.273 8.40606 151.622 8.64019 151.912 8.93927C152.202 9.23533 152.427 9.5888 152.587 9.99966C152.747 10.4075 152.827 10.8516 152.827 11.3319ZM151.576 11.3319C151.576 10.9724 151.528 10.6507 151.431 10.3667C151.338 10.0797 151.202 9.83652 151.024 9.63713C150.845 9.43774 150.628 9.28518 150.371 9.17944C150.117 9.07371 149.83 9.02084 149.51 9.02084C149.19 9.02084 148.901 9.07371 148.645 9.17944C148.388 9.28518 148.169 9.43774 147.987 9.63713C147.809 9.83652 147.672 10.0797 147.575 10.3667C147.478 10.6507 147.43 10.9724 147.43 11.3319C147.43 11.6915 147.478 12.0147 147.575 12.3017C147.672 12.5857 147.809 12.8274 147.987 13.0268C148.169 13.2231 148.388 13.3742 148.645 13.4799C148.901 13.5857 149.19 13.6385 149.51 13.6385C149.83 13.6385 150.117 13.5857 150.371 13.4799C150.628 13.3742 150.845 13.2231 151.024 13.0268C151.202 12.8274 151.338 12.5857 151.431 12.3017C151.528 12.0147 151.576 11.6915 151.576 11.3319ZM154.43 8.05561C154.484 8.05561 154.529 8.05863 154.566 8.06468C154.602 8.0677 154.634 8.07676 154.661 8.09187C154.691 8.10395 154.72 8.12359 154.747 8.15078C154.774 8.17495 154.804 8.20818 154.837 8.25047L158.277 12.6325C158.265 12.5268 158.256 12.4241 158.25 12.3244C158.247 12.2216 158.245 12.1265 158.245 12.0389V8.05561H159.319V14.6083H158.689C158.593 14.6083 158.513 14.5932 158.449 14.563C158.386 14.5328 158.324 14.4784 158.263 14.3998L154.837 10.0359C154.846 10.1326 154.853 10.2293 154.856 10.3259C154.862 10.4196 154.865 10.5057 154.865 10.5842V14.6083H153.791V8.05561H154.43Z" fill="white"/>
    <path d="M127.243 6.87219C124.913 6.87219 123.007 8.77839 123.007 11.1082C123.007 13.438 124.913 15.3442 127.243 15.3442C129.573 15.3442 131.479 13.438 131.479 11.1082C131.479 8.77839 129.573 6.87219 127.243 6.87219ZM127.243 14.497C125.379 14.497 123.854 12.972 123.854 11.1082C123.854 9.24435 125.379 7.71939 127.243 7.71939C129.107 7.71939 130.632 9.24435 130.632 11.1082C130.632 12.972 129.107 14.497 127.243 14.497Z" fill="white"/>
    <path d="M127.455 8.99019H126.819V11.5318L129.022 12.8873L129.361 12.3366L127.455 11.1929V8.99019Z" fill="white"/>
    <defs>
        <filter id="filter0_d" x="114.413" y="2.3769" width="50.8466" height="23.2245" filterUnits="userSpaceOnUse" color-interpolation-filters="sRGB">
            <feFlood flood-opacity="0" result="BackgroundImageFix"/>
            <feColorMatrix in="SourceAlpha" type="matrix" values="0 0 0 0 0 0 0 0 0 0 0 0 0 0 0 0 0 0 127 0"/>
            <feOffset dx="-2.12" dy="2.74641"/>
            <feGaussianBlur stdDeviation="1.375"/>
            <feColorMatrix type="matrix" values="0 0 0 0 0 0 0 0 0 0 0 0 0 0 0 0 0 0 0.17 0"/>
            <feBlend mode="normal" in2="BackgroundImageFix" result="effect1_dropShadow"/>
            <feBlend mode="normal" in="SourceGraphic" in2="effect1_dropShadow" result="shape"/>
        </filter>
    </defs>
</svg>
