<svg width="60" height="60" viewBox="0 0 60 60" fill="none" xmlns="http://www.w3.org/2000/svg">
    <circle opacity="0.1" cx="29.8335" cy="29.8887" r="29.7447" fill="#0278D1"/>
    <path d="M15.3276 32.2342L18.877 32.2342C20.5997 32.2342 21.9963 33.6307 21.9963 35.3534L21.9963 38.327C21.9963 39.869 23.2462 41.1189 24.7881 41.1189V41.1189C26.3301 41.1189 27.58 39.869 27.58 38.327L27.58 22.1593C27.58 20.6526 28.8015 19.4312 30.3082 19.4312V19.4312C31.8149 19.4312 33.0363 20.6526 33.0363 22.1593L33.0363 32.365C33.0363 33.9576 34.3274 35.2487 35.92 35.2487V35.2487C37.5127 35.2487 38.8038 33.9576 38.8038 32.365L38.8038 28.6954C38.8038 26.9726 40.2003 25.5761 41.923 25.5761L45.4512 25.5761" stroke="#0278D1" stroke-width="2" stroke-linecap="round"/>
    <rect x="43.6484" y="21.1899" width="7.79957" height="7.79957" rx="3.89979" fill="#0278D1"/>
    <rect x="9.04785" y="28.9893" width="7" height="7" rx="3.5" fill="#E6F1FA" stroke="#0278D1" stroke-width="2" stroke-linecap="round"/>
</svg>
