<svg width="96" height="73" viewBox="0 0 96 73" fill="none" xmlns="http://www.w3.org/2000/svg">
<path fill-rule="evenodd" clip-rule="evenodd" d="M36.7053 0.437744L47.7801 11.4657L58.4317 0.859155L81.6064 23.936L58.4317 47.0129L47.3569 35.9849L36.7053 46.5915L13.5306 23.5146L36.7053 0.437744ZM45.9085 34.5426L36.7053 43.7069L16.4274 23.5146L36.7053 3.32235L46.3317 12.908L35.2569 23.936L45.9085 34.5426ZM48.8053 34.5426L58.4317 44.1283L78.7096 23.936L58.4317 3.74376L49.2285 12.908L59.8801 23.5146L48.8053 34.5426ZM38.1538 23.936L47.3569 33.1003L56.9833 23.5146L47.7801 14.3503L38.1538 23.936Z" fill="#2E2E2E"/>
<path fill-rule="evenodd" clip-rule="evenodd" d="M0.141602 23.0047H15.5044V24.0245H0.141602V23.0047Z" fill="#2E2E2E"/>
<path fill-rule="evenodd" clip-rule="evenodd" d="M78.594 23.4126H93.9569V24.4325H78.594V23.4126Z" fill="#2E2E2E"/>
<path d="M6.07893 60.6309C6.44969 60.6309 6.88842 60.6185 7.39512 60.5938C7.90182 60.5691 8.33437 60.5567 8.69277 60.5567C9.1006 60.5567 9.50843 60.6185 9.91626 60.7421C10.3365 60.8657 10.7381 61.0511 11.1212 61.2983C11.5167 61.5454 11.838 61.8976 12.0852 62.3549C12.3324 62.8122 12.4559 63.3436 12.4559 63.9492C12.4559 64.3076 12.3756 64.6969 12.215 65.1171C12.0667 65.5249 11.8442 65.9265 11.5476 66.322C11.251 66.7051 10.8493 67.0265 10.3426 67.286C9.84829 67.5332 9.29216 67.6567 8.67423 67.6567C7.98215 67.6567 7.50635 67.4837 7.24682 67.1377C7.17266 67.0512 7.15413 66.909 7.1912 66.7113C7.20356 66.6619 7.2221 66.6433 7.24682 66.6557C7.61757 66.7916 8.03158 66.8596 8.48885 66.8596C9.10678 66.8596 9.6382 66.6001 10.0831 66.081C10.528 65.562 10.7505 64.944 10.7505 64.2272C10.7505 63.3498 10.5589 62.6577 10.1758 62.151C9.79268 61.6319 9.19947 61.3724 8.39616 61.3724C7.84003 61.3724 7.40748 61.4157 7.09851 61.5022C7.03672 61.5145 6.99346 61.564 6.96875 61.6505C6.94403 61.7246 6.91931 61.91 6.8946 62.2066C6.88224 62.5032 6.87606 62.9481 6.87606 63.5413V70.1593C6.87606 70.9874 6.92549 71.525 7.02436 71.7721C7.08615 71.9328 7.30243 72.0626 7.67319 72.1614C8.0563 72.2603 8.32819 72.3097 8.48885 72.3097C8.53828 72.3097 8.563 72.3962 8.563 72.5693C8.563 72.6805 8.55064 72.7732 8.52593 72.8473C7.29007 72.7855 6.48676 72.7546 6.11601 72.7546L3.85439 72.8473C3.81732 72.8102 3.79878 72.699 3.79878 72.5136C3.79878 72.353 3.81732 72.2727 3.85439 72.2727C4.02741 72.2727 4.2684 72.2356 4.57737 72.1614C4.88633 72.0873 5.07171 71.9946 5.1335 71.8834C5.22001 71.7351 5.26327 71.1542 5.26327 70.1408V63.1335C5.26327 62.4043 5.22001 61.8729 5.1335 61.5393C5.09643 61.4404 4.91105 61.3477 4.57737 61.2612C4.25605 61.1747 4.01505 61.1314 3.85439 61.1314C3.80496 61.1314 3.78024 61.0573 3.78024 60.909C3.78024 60.7483 3.80496 60.6433 3.85439 60.5938L6.07893 60.6309Z" fill="#2E2E2E"/>
<path d="M15.7371 71.6053C15.9472 71.7783 16.2191 71.8648 16.5528 71.8648C16.8865 71.8648 17.2078 71.766 17.5168 71.5682C17.8257 71.3581 17.9802 71.148 17.9802 70.9379V69.0285C17.8814 69.078 17.6404 69.1645 17.2572 69.2881C16.8741 69.4117 16.5713 69.5229 16.3489 69.6217C16.1388 69.7083 15.9287 69.8627 15.7186 70.0852C15.5209 70.2953 15.422 70.5425 15.422 70.8267C15.422 71.1604 15.527 71.4199 15.7371 71.6053ZM17.4797 64.7092C18.1594 64.7092 18.6476 64.8761 18.9442 65.2097C19.2408 65.5311 19.3891 66.0563 19.3891 66.7855V71.0677C19.3891 71.3272 19.4571 71.5435 19.593 71.7165C19.729 71.8895 19.9143 71.976 20.1491 71.976C20.3222 71.976 20.5384 71.8895 20.798 71.7165C20.8474 71.7165 20.8721 71.766 20.8721 71.8648C20.8721 72.0255 20.8412 72.1552 20.7794 72.2541C20.2727 72.6867 19.8402 72.9029 19.4818 72.9029C19.1975 72.9029 18.9256 72.7855 18.6661 72.5507C18.4066 72.3159 18.2274 72.0687 18.1285 71.8092C18.1162 71.8092 18.0667 71.8525 17.9802 71.939C17.9061 72.0131 17.801 72.1058 17.6651 72.217C17.5291 72.3159 17.3685 72.421 17.1831 72.5322C17.0101 72.6434 16.8 72.7361 16.5528 72.8102C16.318 72.8844 16.077 72.9215 15.8298 72.9215C15.2613 72.9215 14.7917 72.7732 14.421 72.4766C14.0502 72.1676 13.8648 71.7103 13.8648 71.1048C13.8648 70.8329 13.9328 70.5795 14.0687 70.3447C14.2047 70.0975 14.3653 69.8998 14.5507 69.7515C14.7361 69.5909 14.9894 69.4302 15.3108 69.2695C15.6321 69.1089 15.904 68.9915 16.1264 68.9173C16.3612 68.8308 16.664 68.7258 17.0348 68.6022C17.4055 68.4786 17.6651 68.3859 17.8134 68.3241C17.9246 68.287 17.9802 68.1943 17.9802 68.046V66.6557C17.9802 66.2602 17.8566 65.9574 17.6095 65.7473C17.3623 65.5249 17.0657 65.4137 16.7196 65.4137C16.3489 65.4137 16.0399 65.5434 15.7928 65.8029C15.5456 66.0501 15.422 66.3776 15.422 66.7855C15.422 67.218 15.1686 67.4343 14.6619 67.4343C14.3159 67.4343 14.0749 67.3169 13.939 67.0821C13.939 66.5506 14.3283 66.0254 15.1069 65.5063C15.8854 64.9749 16.6764 64.7092 17.4797 64.7092Z" fill="#2E2E2E"/>
<path d="M29.0473 66.4703V70.1779C29.0473 70.7093 29.0906 71.1789 29.1771 71.5868C29.2018 71.6733 29.2698 71.7412 29.381 71.7907C29.4922 71.8401 29.6096 71.871 29.7332 71.8834C29.8568 71.8957 29.9804 71.9019 30.104 71.9019L30.2708 71.9204C30.3079 71.9328 30.3264 72.0008 30.3264 72.1244C30.3264 72.1614 30.3079 72.2232 30.2708 72.3097C30.2461 72.3839 30.2152 72.421 30.1781 72.421C29.9927 72.4333 29.7826 72.458 29.5478 72.4951C29.3254 72.5322 29.1153 72.5754 28.9175 72.6249C28.7198 72.6743 28.5344 72.7237 28.3614 72.7732C28.1884 72.8226 28.0524 72.8659 27.9536 72.9029L27.7867 72.94C27.6879 72.94 27.6384 72.8411 27.6384 72.6434V71.698L27.6014 71.6053C26.7857 72.4827 25.9762 72.9215 25.1729 72.9215C24.7156 72.9215 24.3202 72.8103 23.9865 72.5878C23.6652 72.353 23.4242 72.0502 23.2635 71.6794C23.1152 71.2963 23.0102 70.9318 22.9484 70.5857C22.8866 70.2273 22.8557 69.8566 22.8557 69.4734V67.1377C22.8557 66.6557 22.7692 66.322 22.5961 66.1366C22.4726 65.9883 22.3181 65.8895 22.1327 65.84C21.9597 65.7782 21.8114 65.7473 21.6878 65.7473C21.5766 65.7473 21.5209 65.735 21.5209 65.7103C21.5209 65.4137 21.558 65.2592 21.6322 65.2468C22.9422 65.0491 23.7949 64.8884 24.1904 64.7648C24.2028 64.7648 24.2213 64.7648 24.246 64.7648C24.2707 64.7525 24.2831 64.7463 24.2831 64.7463C24.3325 64.7463 24.3634 64.8019 24.3758 64.9131C24.3881 65.012 24.3881 65.0862 24.3758 65.1356C24.3016 65.7288 24.2645 66.1861 24.2645 66.5074V69.01C24.2645 69.9616 24.4067 70.666 24.6909 71.1233C24.9752 71.5682 25.4386 71.7907 26.0813 71.7907C26.452 71.7907 26.8042 71.6485 27.1379 71.3643C27.4716 71.0677 27.6384 70.8143 27.6384 70.6042V67.1377C27.6384 66.6557 27.5519 66.322 27.3789 66.1366C27.2553 65.9883 27.1008 65.8895 26.9155 65.84C26.7424 65.7782 26.5941 65.7473 26.4705 65.7473C26.3593 65.7473 26.3037 65.735 26.3037 65.7103C26.3037 65.4137 26.3408 65.2592 26.4149 65.2468C27.7249 65.0491 28.5777 64.8884 28.9732 64.7648C28.9855 64.7648 29.0041 64.7648 29.0288 64.7648C29.0535 64.7525 29.0658 64.7463 29.0658 64.7463C29.1153 64.7463 29.1462 64.8019 29.1585 64.9131C29.1709 65.012 29.1709 65.0862 29.1585 65.1356C29.0844 65.7288 29.0473 66.1737 29.0473 66.4703Z" fill="#2E2E2E"/>
<path d="M32.1802 70.6413V62.6144C32.1802 62.1943 32.1431 61.7988 32.069 61.428C32.0072 61.2303 31.692 61.1314 31.1235 61.1314H30.9567C30.8826 61.1314 30.8455 61.0634 30.8455 60.9275C30.8455 60.7298 30.8826 60.6309 30.9567 60.6309C31.3275 60.5938 31.6673 60.5444 31.9763 60.4826C32.2976 60.4208 32.5448 60.359 32.7178 60.2972C32.9032 60.2354 33.0577 60.1798 33.1812 60.1304C33.3048 60.0686 33.3975 60.0191 33.4593 59.9821L33.5335 59.9265H33.5705C33.62 59.9265 33.6694 59.9635 33.7188 60.0377C33.7683 60.0995 33.7992 60.1613 33.8115 60.2231C33.6756 60.6185 33.6076 61.1561 33.6076 61.8359V70.2891C33.6076 71.0059 33.657 71.5559 33.7559 71.939C33.7806 72.0255 33.9413 72.112 34.2379 72.1985C34.5345 72.2727 34.7446 72.3097 34.8682 72.3097C34.9053 72.3097 34.93 72.3839 34.9423 72.5322C34.9547 72.6805 34.9485 72.7855 34.9238 72.8473C33.6879 72.7855 33.0268 72.7546 32.9403 72.7546C32.8661 72.7546 32.1926 72.7855 30.9196 72.8473C30.8702 72.7979 30.8455 72.699 30.8455 72.5507C30.8455 72.3901 30.8702 72.3097 30.9196 72.3097C31.0679 72.3097 31.2842 72.2727 31.5685 72.1985C31.8651 72.112 32.0257 72.0255 32.0504 71.939C32.1369 71.5806 32.1802 71.148 32.1802 70.6413Z" fill="#2E2E2E"/>
<path d="M37.8157 71.6053C38.0258 71.7783 38.2977 71.8648 38.6314 71.8648C38.965 71.8648 39.2864 71.766 39.5953 71.5682C39.9043 71.3581 40.0588 71.148 40.0588 70.9379V69.0285C39.9599 69.078 39.7189 69.1645 39.3358 69.2881C38.9527 69.4117 38.6499 69.5229 38.4275 69.6217C38.2174 69.7083 38.0073 69.8627 37.7972 70.0852C37.5994 70.2953 37.5006 70.5425 37.5006 70.8267C37.5006 71.1604 37.6056 71.4199 37.8157 71.6053ZM39.5583 64.7092C40.238 64.7092 40.7261 64.8761 41.0227 65.2097C41.3194 65.5311 41.4677 66.0563 41.4677 66.7855V71.0677C41.4677 71.3272 41.5356 71.5435 41.6716 71.7165C41.8075 71.8895 41.9929 71.976 42.2277 71.976C42.4007 71.976 42.617 71.8895 42.8765 71.7165C42.926 71.7165 42.9507 71.766 42.9507 71.8648C42.9507 72.0255 42.9198 72.1552 42.858 72.2541C42.3513 72.6867 41.9187 72.9029 41.5603 72.9029C41.2761 72.9029 41.0042 72.7855 40.7447 72.5507C40.4852 72.3159 40.306 72.0687 40.2071 71.8092C40.1947 71.8092 40.1453 71.8525 40.0588 71.939C39.9846 72.0131 39.8796 72.1058 39.7436 72.217C39.6077 72.3159 39.447 72.421 39.2617 72.5322C39.0886 72.6434 38.8785 72.7361 38.6314 72.8102C38.3966 72.8844 38.1556 72.9215 37.9084 72.9215C37.3399 72.9215 36.8703 72.7732 36.4995 72.4766C36.1288 72.1676 35.9434 71.7103 35.9434 71.1048C35.9434 70.8329 36.0114 70.5795 36.1473 70.3447C36.2832 70.0975 36.4439 69.8998 36.6293 69.7515C36.8147 69.5909 37.068 69.4302 37.3893 69.2695C37.7107 69.1089 37.9825 68.9915 38.205 68.9173C38.4398 68.8308 38.7426 68.7258 39.1134 68.6022C39.4841 68.4786 39.7436 68.3859 39.8919 68.3241C40.0032 68.287 40.0588 68.1943 40.0588 68.046V66.6557C40.0588 66.2602 39.9352 65.9574 39.688 65.7473C39.4409 65.5249 39.1442 65.4137 38.7982 65.4137C38.4275 65.4137 38.1185 65.5434 37.8713 65.8029C37.6241 66.0501 37.5006 66.3776 37.5006 66.7855C37.5006 67.218 37.2472 67.4343 36.7405 67.4343C36.3945 67.4343 36.1535 67.3169 36.0175 67.0821C36.0175 66.5506 36.4068 66.0254 37.1854 65.5063C37.964 64.9749 38.755 64.7092 39.5583 64.7092Z" fill="#2E2E2E"/>
<path d="M59.0601 69.3993C59.0601 69.5352 58.9735 70.011 58.8005 70.8267C58.6275 71.63 58.5039 72.0502 58.4298 72.0873C57.5276 72.6311 56.0508 72.9029 53.9992 72.9029C52.3679 72.9029 50.9776 72.3036 49.8282 71.1048C48.6912 69.906 48.1227 68.4786 48.1227 66.8225C48.1227 65.0676 48.7098 63.5661 49.8838 62.3178C51.0579 61.0573 52.4977 60.427 54.2031 60.427C55.6615 60.427 57.163 60.5815 58.7078 60.8904C58.6831 62.5465 58.6708 63.4363 58.6708 63.5599C58.6708 63.7453 58.541 63.8379 58.2815 63.8379C58.1579 63.8379 58.0776 63.807 58.0405 63.7453C58.0034 63.5846 57.954 63.4239 57.8922 63.2633C57.8427 63.0902 57.7253 62.874 57.54 62.6144C57.3669 62.3426 57.1507 62.1139 56.8911 61.9285C56.644 61.7308 56.2856 61.564 55.8159 61.428C55.3587 61.2797 54.8396 61.2056 54.2588 61.2056C53.0476 61.2056 52.0157 61.7432 51.1629 62.8184C50.3102 63.8812 49.8838 65.0862 49.8838 66.4332C49.8838 67.4343 50.0569 68.355 50.4029 69.1954C50.7489 70.0358 51.2927 70.734 52.0342 71.2902C52.7881 71.8339 53.6779 72.1058 54.7037 72.1058C55.9272 72.1058 56.8726 71.7474 57.54 71.0306C57.713 70.8452 57.8613 70.6043 57.9849 70.3076C58.1208 69.9987 58.2197 69.7453 58.2815 69.5476C58.3556 69.3375 58.4112 69.2324 58.4483 69.2324C58.5225 69.2324 58.609 69.2448 58.7078 69.2695C58.8191 69.2942 58.9056 69.319 58.9674 69.3437L59.0601 69.3993Z" fill="#2E2E2E"/>
<path d="M62.0632 71.6053C62.2733 71.7783 62.5452 71.8648 62.8789 71.8648C63.2125 71.8648 63.5339 71.766 63.8428 71.5682C64.1518 71.3581 64.3063 71.148 64.3063 70.9379V69.0285C64.2074 69.078 63.9664 69.1645 63.5833 69.2881C63.2002 69.4117 62.8974 69.5229 62.6749 69.6217C62.4648 69.7083 62.2547 69.8627 62.0447 70.0852C61.8469 70.2953 61.748 70.5425 61.748 70.8267C61.748 71.1604 61.8531 71.4199 62.0632 71.6053ZM63.8057 64.7092C64.4855 64.7092 64.9736 64.8761 65.2702 65.2097C65.5668 65.5311 65.7151 66.0563 65.7151 66.7855V71.0677C65.7151 71.3272 65.7831 71.5435 65.9191 71.7165C66.055 71.8895 66.2404 71.976 66.4752 71.976C66.6482 71.976 66.8645 71.8895 67.124 71.7165C67.1735 71.7165 67.1982 71.766 67.1982 71.8648C67.1982 72.0255 67.1673 72.1552 67.1055 72.2541C66.5988 72.6867 66.1662 72.9029 65.8078 72.9029C65.5236 72.9029 65.2517 72.7855 64.9922 72.5507C64.7326 72.3159 64.5534 72.0687 64.4546 71.8092C64.4422 71.8092 64.3928 71.8525 64.3063 71.939C64.2321 72.0131 64.1271 72.1058 63.9911 72.217C63.8552 72.3159 63.6945 72.421 63.5091 72.5322C63.3361 72.6434 63.126 72.7361 62.8789 72.8102C62.644 72.8844 62.4031 72.9215 62.1559 72.9215C61.5874 72.9215 61.1178 72.7732 60.747 72.4766C60.3762 72.1676 60.1909 71.7103 60.1909 71.1048C60.1909 70.8329 60.2588 70.5795 60.3948 70.3447C60.5307 70.0975 60.6914 69.8998 60.8768 69.7515C61.0621 69.5909 61.3155 69.4302 61.6368 69.2695C61.9581 69.1089 62.23 68.9915 62.4525 68.9173C62.6873 68.8308 62.9901 68.7258 63.3608 68.6022C63.7316 68.4786 63.9911 68.3859 64.1394 68.3241C64.2507 68.287 64.3063 68.1943 64.3063 68.046V66.6557C64.3063 66.2602 64.1827 65.9574 63.9355 65.7473C63.6883 65.5249 63.3917 65.4137 63.0457 65.4137C62.6749 65.4137 62.366 65.5434 62.1188 65.8029C61.8716 66.0501 61.748 66.3776 61.748 66.7855C61.748 67.218 61.4947 67.4343 60.988 67.4343C60.642 67.4343 60.401 67.3169 60.265 67.0821C60.265 66.5506 60.6543 66.0254 61.4329 65.5063C62.2115 64.9749 63.0024 64.7092 63.8057 64.7092Z" fill="#2E2E2E"/>
<path d="M72.741 64.6907C73.4701 64.6907 73.9521 64.8699 74.1869 65.2283C74.1869 65.6608 74.119 65.976 73.983 66.1737C73.8471 66.3714 73.6802 66.4703 73.4825 66.4703C73.26 66.4703 73.0561 66.3653 72.8708 66.1552C72.6854 65.9451 72.432 65.84 72.1107 65.84C71.7276 65.84 71.3939 66.0192 71.1097 66.3776C70.8254 66.736 70.6833 67.113 70.6833 67.5084V70.2891C70.6833 71.0059 70.7327 71.5559 70.8316 71.939C70.8563 72.0255 71.017 72.112 71.3136 72.1985C71.6225 72.2727 71.8388 72.3097 71.9624 72.3097C71.9995 72.3097 72.0242 72.3839 72.0366 72.5322C72.0489 72.6805 72.0427 72.7855 72.018 72.8473C70.7822 72.7855 70.1148 72.7546 70.0159 72.7546C69.9418 72.7546 69.2682 72.7855 67.9953 72.8473C67.9459 72.7979 67.9211 72.699 67.9211 72.5507C67.9211 72.3901 67.9459 72.3097 67.9953 72.3097C68.1436 72.3097 68.3599 72.2727 68.6441 72.1985C68.9407 72.112 69.1014 72.0255 69.1261 71.939C69.2126 71.5806 69.2559 71.148 69.2559 70.6413V67.1377C69.2559 66.6557 69.1694 66.322 68.9963 66.1366C68.8728 65.9883 68.7183 65.8895 68.5329 65.84C68.3599 65.7782 68.2116 65.7473 68.088 65.7473C67.9768 65.7473 67.9211 65.735 67.9211 65.7103C67.9211 65.4137 67.9582 65.2592 68.0324 65.2468C69.3424 65.0491 70.1951 64.8884 70.5906 64.7648C70.603 64.7648 70.6215 64.7648 70.6462 64.7648C70.6709 64.7525 70.6833 64.7463 70.6833 64.7463C70.7327 64.7463 70.7636 64.8019 70.776 64.9131C70.7883 65.012 70.7883 65.0862 70.776 65.1356L70.6647 66.0625C70.8872 65.7288 71.19 65.4198 71.5731 65.1356C71.9686 64.839 72.3579 64.6907 72.741 64.6907Z" fill="#2E2E2E"/>
<path d="M79.7854 64.6907C80.5145 64.6907 80.9965 64.8699 81.2313 65.2283C81.2313 65.6608 81.1633 65.976 81.0274 66.1737C80.8915 66.3714 80.7246 66.4703 80.5269 66.4703C80.3044 66.4703 80.1005 66.3653 79.9151 66.1552C79.7298 65.9451 79.4764 65.84 79.1551 65.84C78.772 65.84 78.4383 66.0192 78.154 66.3776C77.8698 66.736 77.7277 67.113 77.7277 67.5084V70.2891C77.7277 71.0059 77.7771 71.5559 77.876 71.939C77.9007 72.0255 78.0613 72.112 78.3579 72.1985C78.6669 72.2727 78.8832 72.3097 79.0068 72.3097C79.0438 72.3097 79.0686 72.3839 79.0809 72.5322C79.0933 72.6805 79.0871 72.7855 79.0624 72.8473C77.8265 72.7855 77.1592 72.7546 77.0603 72.7546C76.9862 72.7546 76.3126 72.7855 75.0397 72.8473C74.9902 72.7979 74.9655 72.699 74.9655 72.5507C74.9655 72.3901 74.9902 72.3097 75.0397 72.3097C75.188 72.3097 75.4043 72.2727 75.6885 72.1985C75.9851 72.112 76.1458 72.0255 76.1705 71.939C76.257 71.5806 76.3003 71.148 76.3003 70.6413V67.1377C76.3003 66.6557 76.2137 66.322 76.0407 66.1366C75.9171 65.9883 75.7626 65.8895 75.5773 65.84C75.4043 65.7782 75.256 65.7473 75.1324 65.7473C75.0211 65.7473 74.9655 65.735 74.9655 65.7103C74.9655 65.4137 75.0026 65.2592 75.0768 65.2468C76.3868 65.0491 77.2395 64.8884 77.635 64.7648C77.6473 64.7648 77.6659 64.7648 77.6906 64.7648C77.7153 64.7525 77.7277 64.7463 77.7277 64.7463C77.7771 64.7463 77.808 64.8019 77.8204 64.9131C77.8327 65.012 77.8327 65.0862 77.8204 65.1356L77.7091 66.0625C77.9316 65.7288 78.2344 65.4198 78.6175 65.1356C79.013 64.839 79.4023 64.6907 79.7854 64.6907Z" fill="#2E2E2E"/>
<path d="M85.9028 65.4137C85.2478 65.4137 84.7102 65.7164 84.29 66.322C83.8822 66.9152 83.6783 67.6444 83.6783 68.5095C83.6783 69.5229 83.9378 70.3942 84.4569 71.1233C84.9883 71.8401 85.6062 72.1985 86.3107 72.1985C86.9657 72.1985 87.5033 71.8895 87.9235 71.2716C88.3437 70.6537 88.5537 69.9122 88.5537 69.0471C88.5537 68.046 88.288 67.1933 87.7566 66.4888C87.2252 65.7721 86.6073 65.4137 85.9028 65.4137ZM86.1068 64.6907C87.219 64.6907 88.1706 65.0923 88.9616 65.8956C89.7525 66.6989 90.148 67.6629 90.148 68.7875C90.148 69.9245 89.7587 70.9009 88.9801 71.7165C88.2139 72.5198 87.2685 72.9215 86.1438 72.9215C85.0192 72.9215 84.0614 72.5198 83.2705 71.7165C82.4795 70.9009 82.084 69.9245 82.084 68.7875C82.084 67.6382 82.4672 66.6681 83.2334 65.8771C83.9996 65.0862 84.9574 64.6907 86.1068 64.6907Z" fill="#2E2E2E"/>
<path d="M92.4652 70.6413V62.6144C92.4652 62.1943 92.4282 61.7988 92.354 61.428C92.2922 61.2303 91.9771 61.1314 91.4086 61.1314H91.2417C91.1676 61.1314 91.1305 61.0634 91.1305 60.9275C91.1305 60.7298 91.1676 60.6309 91.2417 60.6309C91.6125 60.5938 91.9524 60.5444 92.2613 60.4826C92.5826 60.4208 92.8298 60.359 93.0028 60.2972C93.1882 60.2354 93.3427 60.1798 93.4663 60.1304C93.5899 60.0686 93.6825 60.0191 93.7443 59.9821L93.8185 59.9265H93.8556C93.905 59.9265 93.9544 59.9635 94.0039 60.0377C94.0533 60.0995 94.0842 60.1613 94.0966 60.2231C93.9606 60.6185 93.8926 61.1561 93.8926 61.8359V70.2891C93.8926 71.0059 93.9421 71.5559 94.041 71.939C94.0657 72.0255 94.2263 72.112 94.5229 72.1985C94.8195 72.2727 95.0296 72.3097 95.1532 72.3097C95.1903 72.3097 95.215 72.3839 95.2274 72.5322C95.2397 72.6805 95.2336 72.7855 95.2088 72.8473C93.973 72.7855 93.3118 72.7546 93.2253 72.7546C93.1511 72.7546 92.4776 72.7855 91.2047 72.8473C91.1552 72.7979 91.1305 72.699 91.1305 72.5507C91.1305 72.3901 91.1552 72.3097 91.2047 72.3097C91.353 72.3097 91.5692 72.2727 91.8535 72.1985C92.1501 72.112 92.3108 72.0255 92.3355 71.939C92.422 71.5806 92.4652 71.148 92.4652 70.6413Z" fill="#2E2E2E"/>
</svg>
