<svg width="140" height="40" viewBox="0 0 140 40" fill="none" xmlns="http://www.w3.org/2000/svg">
    <path d="M100.992 15.4716C98.7599 15.4716 96.9586 16.2547 95.6664 17.7427L95.9014 16.4505C95.9797 16.0198 95.7056 15.7065 95.2748 15.7065C94.8441 15.7065 94.4525 16.0589 94.3742 16.4505L90.5368 36.3818C90.4585 36.8125 90.7326 37.1258 91.1633 37.1258C91.594 37.1258 91.9856 36.7734 92.0639 36.3818L93.4736 28.981C93.9826 29.9208 95.2357 31.213 97.9376 31.213C100.091 31.213 101.853 30.5473 103.263 29.2551C104.712 27.9237 105.691 25.9267 106.2 23.3423C106.709 20.7579 106.474 18.7608 105.534 17.4294C104.673 16.0981 103.106 15.4716 100.992 15.4716ZM98.2117 29.8033C94.9616 29.8033 93.6694 27.5713 94.4917 23.3031C95.314 19.0349 97.3894 16.8421 100.6 16.8421C104.124 16.8421 105.456 18.9566 104.594 23.3031C103.772 27.7279 101.736 29.8033 98.2117 29.8033Z" fill="#CF9C2B"/>
    <path d="M134.118 22.4415C132.2 21.7366 130.359 21.0318 130.712 19.2697C130.868 18.3691 131.612 16.8419 134.588 16.8419C136.233 16.8419 137.29 17.3118 138.191 18.4082C138.347 18.604 138.543 18.604 138.621 18.604C139.013 18.604 139.365 18.2908 139.444 17.8992C139.483 17.7034 139.444 17.5859 139.365 17.4293C138.426 16.0979 136.938 15.4323 134.823 15.4323C131.808 15.4323 129.615 16.8811 129.184 19.2305C128.636 22.0499 131.142 22.9897 133.335 23.812C135.254 24.5168 137.016 25.2217 136.703 26.9446C136.233 29.3724 133.688 29.7248 132.2 29.7248C130.163 29.7248 128.91 29.1766 127.971 27.8844C127.853 27.7278 127.696 27.6886 127.54 27.6886C127.187 27.6886 126.796 27.9627 126.718 28.3934C126.678 28.5892 126.718 28.7067 126.796 28.8633C127.422 29.9989 129.224 31.1345 131.925 31.1345C135.371 31.1345 137.721 29.5682 138.23 26.9446C138.778 24.2036 136.311 23.2638 134.118 22.4415Z" fill="#CF9C2B"/>
    <path d="M129.496 11.5167H127.89L128.204 9.91123C128.282 9.4805 128.008 9.16724 127.577 9.16724C127.146 9.16724 126.755 9.51965 126.676 9.91123L126.363 11.5167H124.758C124.327 11.5167 123.935 11.8691 123.857 12.2607C123.779 12.6914 124.053 13.0047 124.484 13.0047H126.089L125.776 14.6102C125.698 15.0409 125.972 15.3542 126.402 15.3542C126.833 15.3542 127.225 15.0017 127.303 14.6102L127.616 13.0047H129.222C129.652 13.0047 130.044 12.6523 130.122 12.2607C130.201 11.8691 129.927 11.5167 129.496 11.5167Z" fill="#CF9C2B"/>
    <path d="M1.9597 26.9838C2.74285 27.3754 4.15253 27.9627 5.48389 27.9236C6.69778 27.9236 7.36346 27.2579 7.36346 26.4747C7.36346 25.6916 6.89357 25.1825 5.60136 24.3994C3.9959 23.4596 2.74285 22.1674 2.74285 20.4445C2.74285 17.4293 5.32726 15.2756 9.12555 15.2756C10.7702 15.2756 12.0624 15.5889 12.7281 15.9805L11.71 19.0348C11.1226 18.7607 10.1437 18.4474 9.00808 18.4474C7.79419 18.4474 7.01104 18.9956 7.01104 19.8962C7.01104 20.6011 7.55925 21.071 8.65566 21.6583C10.3394 22.6373 11.7491 23.9295 11.7491 25.7699C11.7491 29.2158 8.96892 31.1345 5.09231 31.0954C3.33022 31.0562 1.64644 30.5863 0.863281 30.0381L1.9597 26.9838Z" fill="#1C1C1C"/>
    <path d="M12.6895 31.0172L16.8793 9.16724H21.1867L19.5421 17.6253L19.6204 17.5861C20.7559 16.2156 22.2831 15.2758 24.1627 15.2758C26.3946 15.2758 27.6868 16.7247 27.6868 19.1524C27.6868 19.8964 27.5694 21.1103 27.3736 22.0501L25.6898 31.0172H21.3433L22.9488 22.2851C23.0662 21.6977 23.1446 20.9145 23.1446 20.3272C23.1446 19.3874 22.753 18.7217 21.8132 18.7217C20.4427 18.7217 18.9547 20.5621 18.4065 23.3815L16.9576 30.9781H12.6895V31.0172Z" fill="#1C1C1C"/>
    <path d="M43.2304 21.2279C43.2304 26.5534 39.7846 31.1348 34.6941 31.1348C30.8174 31.1348 28.7812 28.4329 28.7812 25.1045C28.7812 19.8966 32.2271 15.1976 37.3959 15.1976C41.4292 15.2368 43.2304 18.1736 43.2304 21.2279ZM33.1669 25.0262C33.1669 26.5925 33.7934 27.8456 35.2423 27.8456C37.5134 27.8456 38.8056 23.7732 38.8056 21.1496C38.8056 19.8574 38.2966 18.5652 36.7694 18.5652C34.4591 18.526 33.1669 22.5593 33.1669 25.0262Z" fill="#1C1C1C"/>
    <path d="M42.2129 37.0868L45.228 21.3454C45.5805 19.5833 45.9329 17.273 46.0895 15.6284H49.8878L49.6529 18.0561H49.7312C50.8667 16.4507 52.5897 15.3542 54.2735 15.3542C57.4452 15.3542 58.6983 17.8603 58.6983 20.758C58.6983 26.0051 55.3699 31.174 50.3185 31.174C49.2613 31.174 48.2823 31.0173 47.7733 30.5866H47.695L46.5202 37.0476H42.2129V37.0868ZM48.3606 27.2582C48.8305 27.6498 49.3787 27.8847 50.1227 27.8847C52.5114 27.8847 54.1951 23.9298 54.1951 21.1496C54.1951 20.014 53.8036 18.761 52.4722 18.761C50.9842 18.761 49.5745 20.5231 49.0655 23.2249L48.3606 27.2582Z" fill="#1C1C1C"/>
    <path d="M58.8164 31.0172L61.7141 15.6282H66.0606L63.1238 31.0172H58.8164ZM64.416 14.0228C63.2021 14.0228 62.3798 12.9655 62.3798 11.7125C62.3798 10.3028 63.4762 9.12805 64.8467 9.12805C66.1389 9.12805 67.0004 10.1462 67.0004 11.3992C66.9612 13.0047 65.8256 14.0228 64.4551 14.0228H64.416Z" fill="#1C1C1C"/>
    <path d="M66.8818 31.0171L69.153 18.8783H67.1559L67.7825 15.6282H69.7795L69.897 14.845C70.2494 13.0438 70.9151 11.2033 72.4031 9.9503C73.5386 8.9322 75.1049 8.50146 76.6321 8.50146C77.6894 8.50146 78.4725 8.65809 78.9816 8.85388L78.1201 12.2214C77.7285 12.104 77.2978 11.9865 76.7496 11.9865C75.3007 11.9865 74.4393 13.357 74.2043 14.8059L74.0477 15.589H77.0628L76.4755 18.8391H73.4995L71.2283 30.978L66.8818 31.0171Z" fill="#1C1C1C"/>
    <path d="M82.3504 15.6283L83.0552 22.52C83.251 24.0472 83.3685 25.3394 83.4468 26.1617H83.5251C83.8775 25.3394 84.1908 24.1647 84.8173 22.4809L87.4409 15.6283H91.944L86.6577 26.9057C84.7781 30.7823 82.9769 33.6017 81.019 35.4421C79.4918 36.8909 77.6906 37.5958 76.79 37.7915L75.6152 34.1499C76.3201 33.9149 77.2207 33.5234 78.043 32.936C79.0611 32.2312 79.8834 31.3305 80.3925 30.3516C80.5099 30.1166 80.5491 29.9992 80.4708 29.6859L77.8864 15.7066L82.3504 15.6283Z" fill="#1C1C1C"/>
    <path d="M125.972 17.0771C125.541 17.0771 125.149 17.4295 125.071 17.8211L123.622 25.3786C122.839 29.216 120.451 29.7642 118.258 29.7642C114.264 29.7642 114.185 27.4931 114.577 25.2611L116.3 16.3723C116.378 15.9416 116.104 15.6283 115.673 15.6283C115.243 15.6283 114.851 15.9807 114.773 16.3723L113.05 25.2611C112.697 27.0623 112.815 28.3937 113.441 29.3335C114.185 30.5474 115.712 31.1347 117.984 31.1347C120.255 31.1347 122.017 30.5082 123.231 29.3335C124.21 28.3937 124.836 27.0232 125.189 25.2611L126.637 17.8211C126.677 17.4295 126.403 17.0771 125.972 17.0771Z" fill="#CF9C2B"/>
    <path d="M112.228 9.20654C111.797 9.20654 111.406 9.55897 111.328 9.95054L107.412 30.2342C107.333 30.665 107.608 30.9782 108.038 30.9782C108.469 30.9782 108.861 30.6258 108.939 30.2342L112.855 9.95054C112.933 9.55897 112.659 9.20654 112.228 9.20654Z" fill="#CF9C2B"/>
</svg>
