<svg width="129" height="40" viewBox="0 0 129 40" fill="none" xmlns="http://www.w3.org/2000/svg">
    <path d="M28.1132 8.22163C28.0844 8.04916 27.9407 7.93418 27.797 7.93418C27.6533 7.93418 24.9225 7.73297 24.9225 7.73297C24.9225 7.73297 23.0253 5.83581 22.7954 5.6346C22.5942 5.43338 22.163 5.49087 22.0193 5.54836C21.9905 5.54836 21.5881 5.66334 20.9557 5.86455C20.3233 4.02489 19.2023 2.32894 17.2189 2.32894C17.1614 2.32894 17.1039 2.32894 17.0464 2.32894C16.4715 1.58157 15.7816 1.26538 15.178 1.26538C10.5501 1.26538 8.33672 7.04309 7.64685 9.97507C5.86467 10.5212 4.57115 10.9236 4.42743 10.9811C3.42136 11.2973 3.39261 11.3261 3.27763 12.2747C3.16265 12.9645 0.546875 33.2296 0.546875 33.2296L20.9557 37.0527L32.0225 34.6669C32.0225 34.6669 28.1419 8.42285 28.1132 8.22163ZM19.8059 6.20949C19.2885 6.38196 18.7136 6.55443 18.0812 6.75564C18.0812 6.64067 18.0812 6.52569 18.0812 6.38196C18.0812 5.23217 17.9088 4.31233 17.6788 3.59371C18.7136 3.70869 19.3747 4.85849 19.8059 6.20949ZM16.414 3.79493C16.7015 4.51355 16.8739 5.51962 16.8739 6.89937C16.8739 6.95686 16.8739 7.04309 16.8739 7.10058C15.7529 7.44552 14.5169 7.8192 13.3096 8.19289C13.9995 5.57711 15.293 4.28359 16.414 3.79493ZM15.0343 2.50141C15.2355 2.50141 15.4367 2.5589 15.6379 2.70262C14.1719 3.3925 12.5622 5.14593 11.9011 8.6528C10.9238 8.969 9.97518 9.25645 9.08409 9.51515C9.8602 6.84188 11.7286 2.50141 15.0343 2.50141Z" fill="#95BF47"/>
    <path d="M27.7963 7.93428C27.6526 7.93428 24.9219 7.73306 24.9219 7.73306C24.9219 7.73306 23.0247 5.8359 22.7947 5.63469C22.7085 5.54846 22.6223 5.51971 22.5073 5.49097L20.9551 37.0528L32.0218 34.667C32.0218 34.667 28.1413 8.42294 28.1125 8.25047C28.0838 8.04926 27.9113 7.96302 27.7963 7.93428Z" fill="#5E8E3E"/>
    <path d="M17.1911 14.0571L15.8401 18.1102C15.8401 18.1102 14.6328 17.4778 13.1668 17.4778C11.0109 17.4778 10.9247 18.8288 10.9247 19.1737C10.9247 21.0134 15.7538 21.732 15.7538 26.0725C15.7538 29.4931 13.598 31.6777 10.666 31.6777C7.15913 31.6777 5.37695 29.4931 5.37695 29.4931L6.32553 26.3887C6.32553 26.3887 8.1652 27.9696 9.71742 27.9696C10.7235 27.9696 11.1547 27.1648 11.1547 26.5899C11.1547 24.1753 7.18788 24.0603 7.18788 20.0936C7.18788 16.7592 9.5737 13.511 14.4316 13.511C16.2712 13.511 17.1911 14.0571 17.1911 14.0571Z" fill="white"/>
    <path d="M44.9009 21.6459C43.8086 21.0423 43.2337 20.5536 43.2337 19.8638C43.2337 18.9727 44.0098 18.4265 45.2459 18.4265C46.6831 18.4265 47.9479 19.0302 47.9479 19.0302L48.9539 15.9545C48.9539 15.9545 48.0341 15.2358 45.3033 15.2358C41.509 15.2358 38.8645 17.4204 38.8645 20.4674C38.8645 22.1921 40.1005 23.5144 41.739 24.4629C43.0613 25.2103 43.5212 25.7564 43.5212 26.5326C43.5212 27.3662 42.86 28.0273 41.624 28.0273C39.7843 28.0273 38.0597 27.0787 38.0597 27.0787L36.9961 30.1544C36.9961 30.1544 38.6058 31.218 41.2791 31.218C45.1884 31.218 47.9766 29.2921 47.9766 25.8427C48.0341 23.9455 46.5969 22.6233 44.9009 21.6459Z" fill="black"/>
    <path d="M60.4802 15.1782C58.5543 15.1782 57.0596 16.098 55.8811 17.4777L55.8236 17.449L57.4908 8.71057H53.1503L48.9248 30.9303H53.2653L54.7025 23.3417C55.2774 20.4672 56.7434 18.7138 58.1231 18.7138C59.1005 18.7138 59.4742 19.3749 59.4742 20.3235C59.4742 20.9271 59.4167 21.6457 59.2729 22.2494L57.6345 30.9591H61.975L63.6709 21.9907C63.8721 21.0421 63.9871 19.9211 63.9871 19.1449C64.0158 16.6441 62.7223 15.1782 60.4802 15.1782Z" fill="black"/>
    <path d="M73.8464 15.1781C68.6148 15.1781 65.1367 19.8923 65.1367 25.1526C65.1367 28.5157 67.2063 31.2465 71.1156 31.2465C76.261 31.2465 79.7104 26.6473 79.7104 21.272C79.7391 18.1388 77.9282 15.1781 73.8464 15.1781ZM71.7193 27.8833C70.2246 27.8833 69.6209 26.6185 69.6209 25.0376C69.6209 22.5368 70.9144 18.4838 73.2715 18.4838C74.8237 18.4838 75.3124 19.806 75.3124 21.0995C75.3124 23.8016 74.0189 27.8833 71.7193 27.8833Z" fill="black"/>
    <path d="M90.8641 15.1781C87.9322 15.1781 86.265 17.7651 86.265 17.7651H86.2075L86.4662 15.4368H82.6144C82.4132 17.0178 82.0682 19.4036 81.7233 21.2145L78.7051 37.1392H83.0455L84.2528 30.7003H84.3391C84.3391 30.7003 85.2302 31.2752 86.8974 31.2752C92.0139 31.2752 95.3483 26.0436 95.3483 20.7546C95.3483 17.7939 94.0548 15.1781 90.8641 15.1781ZM86.7249 27.9696C85.6038 27.9696 84.9427 27.3372 84.9427 27.3372L85.6613 23.2841C86.1787 20.5821 87.5872 18.7712 89.082 18.7712C90.4042 18.7712 90.8067 20.0072 90.8067 21.157C90.8067 23.9453 89.1395 27.9696 86.7249 27.9696Z" fill="black"/>
    <path d="M101.555 8.91199C100.176 8.91199 99.0547 10.0043 99.0547 11.4415C99.0547 12.7351 99.8595 13.6261 101.096 13.6261H101.153C102.504 13.6261 103.683 12.7063 103.711 11.0966C103.74 9.83182 102.878 8.91199 101.555 8.91199Z" fill="black"/>
    <path d="M95.4619 30.9298H99.8311L102.792 15.5226H98.3939L95.4619 30.9298Z" fill="black"/>
    <path d="M113.83 15.4655H110.812L110.955 14.7469C111.214 13.2522 112.076 11.9299 113.542 11.9299C114.319 11.9299 114.922 12.1599 114.922 12.1599L115.784 8.76797C115.784 8.76797 115.037 8.39429 113.427 8.39429C111.875 8.39429 110.352 8.82546 109.173 9.83153C107.678 11.0963 106.989 12.9072 106.644 14.7469L106.529 15.4655H104.517L103.884 18.7424H105.896L103.597 30.9015H107.937L110.237 18.7424H113.226L113.83 15.4655Z" fill="black"/>
    <path d="M124.293 15.5226C124.293 15.5226 121.562 22.3639 120.355 26.1007H120.297C120.211 24.8934 119.234 15.5226 119.234 15.5226H114.663L117.279 29.665C117.337 29.9812 117.308 30.1825 117.193 30.3837C116.676 31.361 115.842 32.3096 114.836 32.9994C114.031 33.6031 113.111 33.9768 112.393 34.2355L113.6 37.9148C114.491 37.7136 116.302 36.995 117.854 35.5577C119.837 33.6893 121.677 30.8436 123.546 26.9343L128.863 15.5226H124.293Z" fill="black"/>
</svg>
