<svg width="153" height="32" viewBox="0 0 153 32" fill="none" xmlns="http://www.w3.org/2000/svg">
    <path fill-rule="evenodd" clip-rule="evenodd" d="M0.924577 3.43834C1.61541 1.73653 3.38462 0.523354 5.23808 0.523354C19.1727 0.523354 33.0905 0.523354 47.0252 0.523354C48.2383 0.489655 49.4515 0.944595 50.3277 1.77023C51.3555 2.68011 51.9284 4.04493 51.8947 5.40975C51.8947 10.7511 51.9116 16.0924 51.8947 21.4337C51.8779 23.8432 49.7717 26 47.3622 26.0674C42.2904 26.0842 37.2018 26.0674 32.1133 26.0842C32.7872 27.7692 33.4781 29.4373 34.1689 31.1223C31.136 29.4542 28.1536 27.7355 25.1038 26.1011C18.4145 26.0505 11.742 26.1011 5.05274 26.0674C2.64324 26 0.537035 23.8432 0.537035 21.4337C0.537035 16.2104 0.553885 10.9701 0.537035 5.74674C0.520186 4.95481 0.587584 4.16287 0.924577 3.43834Z" fill="#9C5C8F"/>
    <path fill-rule="evenodd" clip-rule="evenodd" d="M21.3458 3.82592C22.1209 3.00029 23.5868 3.26988 24.1428 4.19661C24.4461 4.68525 24.4798 5.34239 24.2271 5.84787C23.1487 7.95408 22.7106 10.313 22.2894 12.6214C21.8007 15.6375 21.3963 18.6873 21.548 21.7539C21.5985 22.529 21.211 23.4894 20.3685 23.6579C19.5766 23.8264 18.852 23.3209 18.3634 22.7481C16.0887 20.3049 14.8081 17.1371 13.8814 13.9694C12.9378 15.8229 11.9942 17.6763 11.0844 19.5466C10.4778 20.8103 9.80379 22.1078 8.77596 23.1019C8.33787 23.5231 7.61333 23.9107 7.07414 23.4726C6.24851 22.7481 6.02947 21.5854 5.67563 20.5745C4.32765 15.9408 3.56942 11.1724 2.79434 6.42076C2.60899 5.62883 2.94598 4.68525 3.73792 4.36511C4.3782 4.12921 5.18699 4.09551 5.74302 4.5673C6.13057 4.9043 6.23166 5.42663 6.29906 5.91527C6.8551 9.58849 7.49539 13.2617 8.38842 16.8675C9.90488 13.9862 11.4214 11.0881 12.9378 8.20682C13.1569 7.78558 13.4265 7.36434 13.8477 7.09475C14.4037 6.74091 15.2294 6.75775 15.6843 7.26324C16.0718 7.66763 16.2066 8.24052 16.3077 8.77971C16.7627 11.1724 17.3693 13.5313 18.2623 15.7892C18.6498 12.3855 19.1216 8.93136 20.3685 5.71308C20.6381 5.05594 20.8908 4.38196 21.3458 3.82592ZM29.9054 5.64568C31.5398 5.44348 33.309 5.98267 34.4211 7.22954C35.331 8.25737 35.8365 9.58849 36.005 10.9533C36.2914 13.2617 35.8702 15.6712 34.7581 17.71C34.1347 18.8726 33.309 20.0016 32.1464 20.6924C30.4446 21.7202 28.1699 21.6023 26.5355 20.5071C25.2212 19.614 24.4798 18.0807 24.1934 16.5474C23.5868 13.0932 24.6146 9.2515 27.2263 6.842C27.9845 6.20172 28.9113 5.76363 29.9054 5.64568ZM30.2424 9.20095C29.4505 9.4537 28.9618 10.1782 28.5406 10.8522C27.4791 12.554 27.1758 14.8119 28.0182 16.6653C28.2373 17.154 28.608 17.6595 29.164 17.7774C29.7706 17.8785 30.3266 17.5247 30.7647 17.154C31.742 16.3283 32.2138 15.0815 32.4497 13.8514C32.7193 12.4529 32.5845 10.9028 31.7589 9.72329C31.4387 9.2178 30.7984 8.99876 30.2424 9.20095ZM43.0481 5.64568C44.6488 5.44348 46.3843 5.94897 47.5133 7.12845C48.5242 8.20682 49.0634 9.65589 49.2151 11.105C49.451 13.346 49.0466 15.6544 47.9851 17.6426C47.3448 18.8389 46.5023 20.0016 45.3228 20.6924C43.6884 21.6697 41.5316 21.5854 39.9309 20.6082C38.8357 19.951 38.1112 18.8221 37.6899 17.6426C36.5442 14.0368 37.5046 9.79069 40.15 7.06105C40.9082 6.33651 41.936 5.79733 43.0481 5.64568ZM43.3851 9.20095C42.5258 9.50424 42.0034 10.3299 41.5653 11.0713C40.6049 12.7731 40.3522 14.9635 41.2284 16.7664C41.4642 17.2551 41.8855 17.7606 42.4752 17.7943C43.1155 17.8111 43.6716 17.4067 44.1265 16.9855C45.1038 16.0251 45.5419 14.6602 45.6935 13.3291C45.862 12.0822 45.643 10.7511 44.9184 9.70644C44.5983 9.2178 43.9411 8.99876 43.3851 9.20095Z" fill="white"/>
    <path fill-rule="evenodd" clip-rule="evenodd" d="M60.5725 6.13447C61.971 5.83118 63.4369 5.86488 64.8354 6.18502C64.8354 7.3308 64.8354 8.45972 64.8354 9.6055C63.6896 9.3359 62.4259 9.06631 61.3138 9.6055C59.9996 10.2458 59.275 11.7454 59.2582 13.1776C59.1908 14.6098 59.6626 16.1937 60.9263 17.0025C62.0889 17.7776 63.5717 17.6091 64.8523 17.2384C64.8523 18.3673 64.8523 19.5131 64.8523 20.642C63.1673 21.1306 61.3307 21.0632 59.6794 20.4567C57.708 19.7153 56.1242 18.0135 55.5344 15.9915C55.0795 14.4582 55.0121 12.7901 55.3828 11.2399C55.9557 8.72932 58.0619 6.69051 60.5725 6.13447ZM70.8339 5.96598C72.5526 5.78063 74.4229 6.03338 75.8045 7.14545C77.1525 8.19013 77.8096 9.85824 78.0455 11.4927C78.2814 13.2787 78.2309 15.149 77.6748 16.8845C77.203 18.3505 76.2089 19.7153 74.7936 20.3893C73.3445 21.0632 71.6595 21.1138 70.1262 20.7768C68.694 20.4567 67.4471 19.5131 66.7394 18.2325C65.7621 16.5138 65.5768 14.475 65.6611 12.5373C65.7453 10.8692 66.1665 9.11686 67.2955 7.81944C68.1716 6.75791 69.4691 6.11762 70.8339 5.96598ZM71.3562 9.21796C70.6148 9.4033 70.1936 10.1278 70.0083 10.8187C69.6376 12.1666 69.705 13.5989 69.7892 14.9974C69.8735 15.7388 69.9577 16.5812 70.4969 17.1541C71.2046 17.9629 72.6368 17.845 73.2771 17.0193C73.7152 16.497 73.8163 15.7893 73.9174 15.1322C74.0522 13.9696 74.0859 12.7732 73.9174 11.6106C73.7994 10.9198 73.5972 10.1784 73.0917 9.65605C72.6537 9.20111 71.9628 9.06631 71.3562 9.21796ZM138.772 6.18502C140.238 5.79748 141.771 5.86488 143.237 6.16817C143.27 7.31395 143.237 8.44287 143.254 9.58865C142.142 9.31905 140.911 9.06631 139.816 9.55495C138.553 10.1278 137.794 11.4758 137.693 12.8238C137.542 14.3402 137.946 16.0758 139.277 16.9519C140.44 17.7607 141.956 17.5922 143.237 17.2215C143.22 18.3673 143.27 19.5131 143.203 20.6589C141.4 21.1306 139.446 21.0632 137.744 20.3219C135.857 19.4962 134.408 17.8113 133.868 15.823C133.447 14.3065 133.413 12.6721 133.784 11.1388C134.408 8.76302 136.396 6.80846 138.772 6.18502ZM80.3202 6.30297C81.9378 6.30297 83.5722 6.30297 85.1898 6.30297C85.7795 8.93151 86.3355 11.5769 86.8242 14.2391C87.296 11.5769 87.9194 8.93151 88.5429 6.30297C90.211 6.30297 91.8791 6.30297 93.5472 6.30297C94.1875 11.0714 94.8446 15.8399 95.4849 20.6083C94.2043 20.6083 92.9406 20.6083 91.66 20.6083C91.3062 17.3395 90.986 14.0707 90.6154 10.8018C89.8403 14.0707 89.0315 17.3395 88.2396 20.6083C87.3634 20.6083 86.504 20.6083 85.6279 20.6083C84.8022 17.3395 83.9766 14.0538 83.1341 10.785C82.814 14.0538 82.477 17.3395 82.1568 20.6083C80.9437 20.6083 79.7136 20.6083 78.5005 20.6083C79.0902 15.8399 79.7136 11.0714 80.3202 6.30297ZM97.8101 6.30297C99.4277 6.30297 101.062 6.30297 102.697 6.30297C103.286 8.93151 103.842 11.5769 104.331 14.2223C104.803 11.5601 105.426 8.93151 106.05 6.30297C107.718 6.30297 109.369 6.30297 111.037 6.30297C111.677 11.0714 112.335 15.8399 112.975 20.6083C111.694 20.6083 110.431 20.6083 109.15 20.6083C108.796 17.3395 108.459 14.0707 108.122 10.8018C107.33 14.0707 106.555 17.3395 105.746 20.6083C104.87 20.6083 104.011 20.6083 103.135 20.6083C102.309 17.3395 101.467 14.0538 100.641 10.785C100.304 14.0538 99.9837 17.3395 99.6468 20.6083C98.4336 20.6083 97.2036 20.6083 95.9904 20.6083C96.5801 15.8399 97.2036 11.0714 97.8101 6.30297ZM114.036 6.33667C116.648 6.28612 119.26 6.33667 121.871 6.31982C121.871 7.3308 121.871 8.34178 121.871 9.3696C120.557 9.38645 119.243 9.3696 117.912 9.3696C117.912 10.2458 117.912 11.122 117.912 11.9813C119.058 11.9813 120.186 11.9813 121.332 11.9813C121.332 12.9754 121.332 13.9527 121.332 14.9468C120.186 14.9468 119.058 14.9468 117.912 14.9468C117.912 15.823 117.912 16.6992 117.912 17.5585C119.226 17.5585 120.557 17.5585 121.888 17.5585C121.888 18.5695 121.888 19.5973 121.888 20.6083C119.277 20.6083 116.665 20.6083 114.053 20.6083C114.053 15.8736 114.087 11.1051 114.036 6.33667ZM123 6.30297C124.635 6.30297 126.269 6.28612 127.904 6.31982C129.437 6.37037 131.071 6.75791 132.234 7.83629C133.279 8.79672 133.632 10.3806 133.228 11.7117C132.908 12.8069 132.082 13.6831 131.071 14.1717C132.099 16.3117 133.127 18.4684 134.155 20.6083C132.79 20.6083 131.442 20.6083 130.077 20.6083C129.016 18.4179 127.971 16.2106 126.893 14.0201C126.859 16.2106 126.893 18.401 126.876 20.6083C125.578 20.6083 124.298 20.6083 123 20.6083C123 15.8399 123 11.0714 123 6.30297ZM126.859 9.04946C126.859 10.1784 126.859 11.3242 126.859 12.4699C127.55 12.4194 128.325 12.3857 128.915 11.9644C129.605 11.4758 129.521 10.4143 129.1 9.77399C128.544 9.11686 127.617 9.11686 126.859 9.04946ZM144.332 6.30297C146.944 6.30297 149.539 6.30297 152.15 6.30297C152.15 7.31395 152.15 8.34178 152.15 9.35275C150.836 9.35275 149.505 9.35275 148.191 9.35275C148.191 10.2289 148.191 11.0883 148.191 11.9644C149.336 11.9644 150.465 11.9644 151.611 11.9644C151.611 12.9586 151.611 13.9527 151.611 14.93C150.465 14.93 149.336 14.93 148.191 14.93C148.191 15.8062 148.191 16.6823 148.191 17.5417C149.522 17.5417 150.853 17.5417 152.184 17.5417C152.184 18.5527 152.184 19.5805 152.184 20.5915C149.572 20.5915 146.961 20.5915 144.349 20.5915C144.332 15.8399 144.332 11.0714 144.332 6.30297Z" fill="black"/>
</svg>
